<svg xmlns="http://www.w3.org/2000/svg" viewBox="0 0 757.54 156.43"><defs><style>.cls-1{opacity:0.95;}.cls-2{opacity:0.85;}.cls-3{opacity:0.6;}.cls-4{opacity:0.8;}.cls-5{opacity:0.75;}.cls-6{opacity:0.65;}.cls-7{opacity:0.7;}.cls-8{opacity:0.55;}</style></defs><title>Asset 37</title><g id="Layer_2" data-name="Layer 2"><g id="Слой_2" data-name="Слой 2"><path class="cls-1" d="M658.91,126.3H637.3V0h21.61Z"/><path d="M754.6,97.76A40.78,40.78,0,0,1,749.21,108a43.07,43.07,0,0,1-8.82,9.14,46.35,46.35,0,0,1-11.76,6.59,38.91,38.91,0,0,1-14.21,2.56,41.94,41.94,0,0,1-17.35-3.64,46.31,46.31,0,0,1-14.3-9.93A47.77,47.77,0,0,1,673,98.05a46.42,46.42,0,0,1,0-36,47.77,47.77,0,0,1,9.8-14.66,46.48,46.48,0,0,1,14.3-9.93,42.3,42.3,0,0,1,47.73,9.15,44.93,44.93,0,0,1,9.31,14.65,50.18,50.18,0,0,1,3.43,18.79,23.05,23.05,0,0,1-.2,3c-.13,1-.26,1.94-.39,2.86s-.26,2-.39,3H693.84a21,21,0,0,0,6.66,11.21q5.1,4.53,13.92,4.52a24.75,24.75,0,0,0,7.55-1,22.75,22.75,0,0,0,5.19-2.36,17.26,17.26,0,0,0,3.92-3.54ZM714.42,55.47q-8.82,0-14.41,5.11a23.08,23.08,0,0,0-7.15,12.59H736a23.14,23.14,0,0,0-7.15-12.59Q723.24,55.47,714.42,55.47Z"/><path class="cls-2" d="M623.43,61.8a47.13,47.13,0,0,0-9.22-14.61,41.63,41.63,0,0,0-13.42-9.6,38.8,38.8,0,0,0-16.07-3.43,30,30,0,0,0-9.9,1.47,57.91,57.91,0,0,0-7.35,3,54.21,54.21,0,0,0-7.94,4.91V1.82h0V0H537.92V126.33h21.61v-9.59a34.21,34.21,0,0,0,6.57,4.64,38.44,38.44,0,0,0,8,3.43,35.48,35.48,0,0,0,10.59,1.47,38.8,38.8,0,0,0,16.07-3.43,41.63,41.63,0,0,0,13.42-9.6,47.13,47.13,0,0,0,9.22-14.61,48.51,48.51,0,0,0,3.43-18.42A48.55,48.55,0,0,0,623.43,61.8ZM597.85,98.06a22.73,22.73,0,0,1-32.15,0q-6.47-6.68-6.46-17.84t6.46-17.84a22.73,22.73,0,0,1,32.15,0q6.46,6.67,6.47,17.84T597.85,98.06Z"/><g class="cls-3"><rect x="91.11" y="55.55" width="21.43" height="48.95"/><rect x="159.7" width="21.61" height="126.21"/><rect x="112.54" y="33.83" width="50.32" height="21.76"/><rect x="112.54" y="104.53" width="50.32" height="21.68"/></g><path class="cls-4" d="M523.93,55.15a33.61,33.61,0,0,0-18.81-18.74,37.68,37.68,0,0,0-14.33-2.67,45.26,45.26,0,0,0-15.42,2.48,38.61,38.61,0,0,0-11.84,6.64,31.4,31.4,0,0,0-7.86,9.71A35.18,35.18,0,0,0,452,64.47h22.88a11.63,11.63,0,0,1,2.39-5,17.89,17.89,0,0,1,4.28-3.37,14.32,14.32,0,0,1,7.26-1.58q6.76,0,10.85,4.16c2.72,2.77,4.08,6.68,4.08,11.7q-15.72,0-26.17,2.28T460.75,79a23.75,23.75,0,0,0-9.06,9.72A28.46,28.46,0,0,0,449,101.15a23.94,23.94,0,0,0,8,18.53q8,7.25,22.89,7.24a35.75,35.75,0,0,0,10.74-1.49,38.48,38.48,0,0,0,8.16-3.47,43.15,43.15,0,0,0,6.63-4.68v9h21.23V69.43A37.24,37.24,0,0,0,523.93,55.15Zm-20.2,35.09a18,18,0,0,1-5.47,13.58q-5.47,5.27-14.43,5.26a12.21,12.21,0,0,1-8.56-3.08,9.06,9.06,0,0,1-3.38-6.84,11.85,11.85,0,0,1,1.19-5.35,9.68,9.68,0,0,1,4.68-4.06,33.84,33.84,0,0,1,9.65-2.58,118.1,118.1,0,0,1,16.32-.89Z"/></g><g id="Слой_3" data-name="Слой 3"><g class="cls-5"><rect x="380.56" y="33.9" width="57.68" height="21.61"/><rect x="416.46" y="104.46" width="22.02" height="21.79"/><rect x="394.44" y="12.09" width="22.02" height="92.36"/></g><g class="cls-6"><rect x="214.18" y="107.73" width="37.57" height="18.48"/><rect x="214.18" y="67.46" width="37.57" height="18.48"/><rect x="205.61" y="33.83" width="45.46" height="21.72"/><rect x="251.07" y="55.55" width="21.29" height="70.66"/><rect x="192.16" y="85.94" width="22.02" height="21.79"/></g><g class="cls-7"><rect x="299.43" y="33.83" width="49.02" height="21.68"/><rect x="284.44" y="33.83" width="22.02" height="122.6"/><rect x="348.45" y="55.51" width="21.37" height="52.21"/><rect x="304.31" y="107.73" width="44.15" height="18.41"/></g></g><g id="Слой_4" data-name="Слой 4"><g class="cls-8"><rect x="22.02" y="107.93" width="37.57" height="18.48"/><rect x="22.02" y="67.66" width="37.57" height="18.48"/><rect x="13.45" y="34.03" width="45.46" height="21.72"/><rect x="58.91" y="55.75" width="21.29" height="70.66"/><rect y="86.14" width="22.02" height="21.79"/></g></g></g></svg>