<svg version="1.1" id="Capa_1" xmlns="http://www.w3.org/2000/svg" x="0" y="0" viewBox="0 0 500 500" xml:space="preserve"><style></style><path d="M398.6 386H99.3c-14.1 0-25.6-11.5-25.6-25.6V141.2c0-14.1 11.5-25.6 25.6-25.6h299.3c14.1 0 25.6 11.5 25.6 25.6v219.3c0 14-11.5 25.5-25.6 25.5zM99.3 119.6c-11.9 0-21.6 9.7-21.6 21.6v219.3c0 11.9 9.7 21.6 21.6 21.6h299.3c11.9 0 21.6-9.7 21.6-21.6V141.2c0-11.9-9.7-21.6-21.6-21.6H99.3z"/><path d="M422.2 160.4H75.7c-1.1 0-2-.9-2-2s.9-2 2-2h346.5c1.1 0 2 .9 2 2s-.9 2-2 2z"/><path d="M409.6 381.4c-3.6 8.3-11.9 14.1-21.6 14.1H88.7c-13 0-23.6-10.5-23.6-23.6V152.7c0-9.2 5.3-17.2 13-21.1-1.3 2.9-2 6.1-2 9.5V360.4c0 13 10.5 23.6 23.6 23.6H399c3.8-.1 7.4-1 10.6-2.6z"/><path d="M398.6 117.6H99.3c-13 0-23.6 10.5-23.6 23.6v17.2h346.5v-17.2c0-13-10.5-23.6-23.6-23.6zM99.5 144.8c-3.6 0-6.6-2.9-6.6-6.6 0-3.6 2.9-6.6 6.6-6.6 3.6 0 6.6 2.9 6.6 6.6 0 3.6-3 6.6-6.6 6.6zm29.3 0c-3.6 0-6.6-2.9-6.6-6.6 0-3.6 2.9-6.6 6.6-6.6 3.6 0 6.6 2.9 6.6 6.6 0 3.6-3 6.6-6.6 6.6zm29.3 0c-3.6 0-6.6-2.9-6.6-6.6 0-3.6 2.9-6.6 6.6-6.6 3.6 0 6.6 2.9 6.6 6.6 0 3.6-3 6.6-6.6 6.6zm242.8 2.1h-23c-1.2 0-2.1-.9-2.1-2.1s.9-2.1 2.1-2.1h23c1.2 0 2.1.9 2.1 2.1s-.9 2.1-2.1 2.1zM377.5 241H120.4c-13.3 0-24.2-10.8-24.2-24.2v-15.7c0-13.3 10.8-24.2 24.2-24.2h257.1c13.3 0 24.2 10.8 24.2 24.2v15.7c0 13.4-10.9 24.2-24.2 24.2zm-257.1-59.9c-11.1 0-20.2 9-20.2 20.2V217c0 11.1 9 20.2 20.2 20.2h257.1c11.1 0 20.2-9 20.2-20.2v-15.7c0-11.1-9-20.2-20.2-20.2H120.4zM249 276.5H99.5c-1.1 0-2-.9-2-2s.9-2 2-2H249c1.1 0 2 .9 2 2s-.9 2-2 2zM249 310.2H99.5c-1.1 0-2-.9-2-2s.9-2 2-2H249c1.1 0 2 .9 2 2s-.9 2-2 2zM191.6 347H99.5c-1.1 0-2-.9-2-2s.9-2 2-2h92.1c1.1 0 2 .9 2 2s-.9 2-2 2zM409.5 409.2c2.6 2.6 6.8 2.6 9.4 0l11.6-11.6c2.6-2.6 2.6-6.8 0-9.4l-6.6-6.6c3.9-6.2 6.7-12.9 8.3-20h9.3c3.7 0 6.6-3 6.6-6.6v-16.4c0-3.7-3-6.6-6.6-6.6h-9.3c-1.6-7.1-4.4-13.8-8.3-20l6.6-6.6c1.3-1.3 1.9-2.9 1.9-4.7s-.7-3.4-1.9-4.7l-11.6-11.6a6.64 6.64 0 00-9.4 0l-6.6 6.6c-6.2-3.9-12.9-6.7-20-8.3v-9.3c0-3.7-3-6.6-6.6-6.6h-16.4c-3.7 0-6.6 3-6.6 6.6v9.3c-7.1 1.6-13.8 4.4-20 8.3l-6.6-6.6a6.64 6.64 0 00-9.4 0L305.7 296c-1.3 1.3-1.9 2.9-1.9 4.7 0 1.8.7 3.4 1.9 4.7l6.6 6.6c-3.9 6.2-6.7 12.9-8.3 20h-9.3c-3.7 0-6.6 3-6.6 6.6V355c0 3.7 3 6.6 6.6 6.6h9.3c1.6 7.1 4.4 13.8 8.3 20l-6.6 6.6a6.64 6.64 0 000 9.4l11.6 11.6c2.6 2.6 6.8 2.6 9.4 0l6.6-6.6c6.2 3.9 12.9 6.7 20 8.3v9.3c0 3.7 3 6.6 6.6 6.6h16.4c3.7 0 6.6-3 6.6-6.6v-9.3c7.1-1.6 13.8-4.4 20-8.3l6.6 6.6zM402.9 346.7c0 19.3-15.7 35-35 35s-35-15.7-35-35 15.7-35 35-35 35 15.7 35 35z"/><path d="M371.1 455.5c-32 0-61.8-14.3-81.7-39.3-.7-.9-.5-2.1.3-2.8.9-.7 2.1-.5 2.8.3 19.2 24 47.9 37.8 78.6 37.8 55.5 0 100.6-45.1 100.6-100.6 0-21.5-6.7-41.9-19.3-59.2-.7-.9-.5-2.1.4-2.8.9-.7 2.1-.5 2.8.4 13.1 18 20.1 39.3 20.1 61.6 0 57.7-46.9 104.6-104.6 104.6z"/><g><path d="M461 281.3l-18.5 15.4-6.1-26.2z"/><path d="M442.5 298.7c-.2 0-.4 0-.6-.1-.7-.2-1.2-.8-1.3-1.4l-6.1-26.2c-.2-.7.1-1.5.7-2s1.4-.6 2.1-.3l24.6 10.8c.6.3 1.1.9 1.2 1.6.1.7-.2 1.4-.7 1.8l-18.5 15.3c-.5.3-1 .5-1.4.5zm-3.2-24.8l4.4 19.1 13.5-11.2-17.9-7.9z"/></g></svg>