<?xml version="1.0" encoding="utf-8"?>
<!-- Generator: Adobe Illustrator 22.0.1, SVG Export Plug-In . SVG Version: 6.00 Build 0)  -->
<svg version="1.1" id="Layer_1" xmlns="http://www.w3.org/2000/svg" xmlns:xlink="http://www.w3.org/1999/xlink" x="0px" y="0px"
	 viewBox="0 0 24 24" style="enable-background:new 0 0 24 24;" xml:space="preserve">
<style type="text/css">
	.st0{fill:#FFFFFF;}
</style>
<path class="st0" d="M17.2,3.1H6.8c-2.1,0-3.7,1.7-3.7,3.7v10.4c0,2.1,1.7,3.7,3.7,3.7h10.4c2.1,0,3.7-1.7,3.7-3.7V6.8
	C20.9,4.7,19.3,3.1,17.2,3.1z M9,17.2H6.8V9H9V17.2z M7.9,8.1c-0.7,0-1.3-0.6-1.3-1.3s0.6-1.3,1.3-1.3S9.2,6,9.2,6.8
	S8.6,8.1,7.9,8.1z M18,17.2h-2.2V13c0-2.5-3-2.3-3,0v4.2h-2.2V9h2.2v1.3c1-1.9,5.2-2.1,5.2,1.8V17.2z"/>
</svg>
