<?xml version="1.0" encoding="utf-8"?>
<!-- Generator: Adobe Illustrator 21.1.0, SVG Export Plug-In . SVG Version: 6.00 Build 0)  -->
<svg version="1.1" id="Capa_1" xmlns="http://www.w3.org/2000/svg" xmlns:xlink="http://www.w3.org/1999/xlink" x="0px" y="0px"
	 viewBox="0 0 500 500" style="enable-background:new 0 0 500 500;" xml:space="preserve">
<style type="text/css">
	.st0{fill:none;stroke:#000000;stroke-width:4;stroke-linecap:round;stroke-linejoin:round;stroke-miterlimit:10;}
	.st1{fill:#FFFFFF;}
	.st2{fill:#020202;}
</style>
<g>
	<path class="st1" d="M395.4,172.1H292.6c-0.4-28.7-7.2-56.1-19.1-77.6c-0.1-0.2-0.2-0.3-0.3-0.5c-4.1-7.4-8.9-14.2-14.1-20
		c-2.4-2.7-5.7-4.2-9.1-4.2s-6.7,1.5-9.1,4.2c-5.3,5.8-10,12.6-14.2,20c-0.1,0.1-0.2,0.3-0.2,0.4c-11.9,21.6-18.7,49-19.1,77.7
		H104.6c-12.1,0-22,9.9-22,22v161.8c0,12.1,9.9,22,22,22H229v29.8h-50.6c-4.8,0-8.7,3.9-8.7,8.7v5.1c0,4.8,3.9,8.7,8.7,8.7h143.3
		c4.8,0,8.7-3.9,8.7-8.7v-5.1c0-4.8-3.9-8.7-8.7-8.7H271v-29.8h124.4c12.1,0,22-9.9,22-22V194C417.4,181.9,407.5,172.1,395.4,172.1z
		 M243.9,76.6c1.7-1.8,3.8-2.8,6.1-2.8s4.5,1,6.1,2.8c4.4,4.9,8.4,10.4,12,16.5h-36.3C235.4,87,239.5,81.5,243.9,76.6z M229.6,97.1
		h40.8c11.6,21.4,18.2,48.8,18.2,77.4c0,14.5-1.7,28.6-4.8,41.8h-67.5c-3.2-13.2-4.8-27.3-4.8-41.8
		C211.4,145.9,218,118.6,229.6,97.1z M305.8,302.5c-0.6-6.4-1.4-12.2-2.5-17.5c10.7-1.2,20.7,1.1,28.2,6.6
		c7.2,5.3,11.8,13.2,13.2,22.7c0,0,0,0,0,0.1c0,0.1,0,0.1,0,0.2c0,0.1,0,0.1,0.1,0.2c0,0,0,0.1,0.1,0.1c0,0.1,0.1,0.1,0.1,0.2
		c0,0,0.1,0.1,0.1,0.1c0,0.1,0.1,0.1,0.1,0.2c0,0,0.1,0.1,0.1,0.1c0.1,0,0.1,0.1,0.2,0.1c0,0,0.1,0.1,0.1,0.1c0.1,0,0.1,0.1,0.2,0.1
		c0,0,0.1,0,0.1,0.1c0.1,0,0.2,0.1,0.2,0.1c0,0,0.1,0,0.1,0c0.1,0,0.3,0,0.4,0c0,0,0,0,0,0s0,0,0,0c11,0,19.9,9.3,20.3,20.8H133.1
		c0.3-11.5,9.3-20.8,20.3-20.8c0,0,0,0,0,0c0,0,0,0,0,0c0.1,0,0.2,0,0.4,0c0,0,0.1,0,0.1,0c0.1,0,0.2,0,0.2-0.1c0,0,0.1,0,0.1-0.1
		c0.1,0,0.1-0.1,0.2-0.1c0,0,0.1-0.1,0.1-0.1c0.1,0,0.1-0.1,0.2-0.1c0,0,0.1-0.1,0.1-0.1c0.1-0.1,0.1-0.1,0.2-0.2c0,0,0-0.1,0.1-0.1
		c0.1-0.1,0.1-0.2,0.2-0.3c0,0,0,0,0,0c0-0.1,0.1-0.2,0.1-0.3c4.7-20.8,21.6-32.7,41.5-29.5c-1.1,5.3-2,11.2-2.5,17.6
		c-0.3,3,1.4,5.7,4.1,6.9c0.9,0.4,1.8,0.6,2.7,0.6c1.9,0,3.8-0.8,5.1-2.4c9.7-11.2,25.2-24.5,43.9-24.5s34.1,13.3,43.9,24.5
		c1.3,1.5,3.2,2.4,5.1,2.4c0.9,0,1.8-0.2,2.7-0.6C304.4,308.2,306.1,305.5,305.8,302.5z M198.2,302.9c3.2-36.5,17.1-54.5,22.5-60.2
		c6.3,14.6,14.5,27.2,24.4,36.7c-17.9,2-32.6,14.7-42,25.6c-1,1.1-2.3,1.1-3.2,0.7C199,305.3,198,304.4,198.2,302.9z M300.1,305.7
		c-0.9,0.4-2.2,0.4-3.2-0.7c-9.4-10.8-24.1-23.6-42-25.6c9.9-9.5,18.2-22.1,24.4-36.7c5.4,5.7,19.4,23.8,22.5,60.2
		C302,304.4,301,305.3,300.1,305.7z M250,278.5c-15-13.4-26.4-34.1-32.8-58.1h65.5C276.4,244.4,265,265,250,278.5z M86.6,194
		c0-9.9,8.1-18,18-18h102.8c0.1,14.7,1.9,29,5.3,42.4c0,0.2,0.1,0.4,0.2,0.6c1.7,6.8,3.8,13.3,6.3,19.5c-4.2,4-15.4,16.7-21.5,42.4
		c-21.7-3.6-40.2,9-45.8,31.1c-12.4,0.8-22.4,11.6-22.7,24.8H86.6V194z M321.6,411.7c2.6,0,4.7,2.1,4.7,4.7v5.1
		c0,2.6-2.1,4.7-4.7,4.7H178.4c-2.6,0-4.7-2.1-4.7-4.7v-5.1c0-2.6,2.1-4.7,4.7-4.7H231h38H321.6z M233,407.7v-29.8h34v29.8H233z
		 M413.4,355.8c0,9.9-8.1,18-18,18H269h-38H104.6c-9.9,0-18-8.1-18-18v-15h326.7V355.8z M413.4,336.9H371
		c-0.3-13.2-10.2-23.9-22.6-24.8c-1.8-9.8-6.8-18-14.5-23.7c-8.4-6.2-19.5-8.8-31.4-7.3c-6.1-25.8-17.3-38.5-21.5-42.5
		c7.3-18.6,11.5-40.1,11.7-62.6h102.8c9.9,0,18,8.1,18,18V336.9z"/>
	<path class="st1" d="M250,180.3c11.7,0,21.2-9.5,21.2-21.2c0-11.7-9.5-21.2-21.2-21.2s-21.2,9.5-21.2,21.2
		C228.8,170.8,238.3,180.3,250,180.3z M250,141.9c9.5,0,17.2,7.7,17.2,17.2s-7.7,17.2-17.2,17.2s-17.2-7.7-17.2-17.2
		S240.5,141.9,250,141.9z"/>
	<path class="st1" d="M135.2,271c0-6.4-5.2-11.6-11.6-11.6S112,264.6,112,271s5.2,11.6,11.6,11.6S135.2,277.4,135.2,271z
		 M123.6,278.6c-4.2,0-7.6-3.4-7.6-7.6s3.4-7.6,7.6-7.6s7.6,3.4,7.6,7.6S127.8,278.6,123.6,278.6z"/>
	<path class="st1" d="M174,218.8c3.8,0,6.8-3.1,6.8-6.8s-3.1-6.8-6.8-6.8s-6.8,3.1-6.8,6.8S170.3,218.8,174,218.8z M174,209.1
		c1.5,0,2.8,1.3,2.8,2.8s-1.3,2.8-2.8,2.8s-2.8-1.3-2.8-2.8S172.5,209.1,174,209.1z"/>
	<path class="st1" d="M353,240.7c-4.5,0-8.1,3.6-8.1,8.1s3.6,8.1,8.1,8.1s8.1-3.6,8.1-8.1S357.5,240.7,353,240.7z M353,252.9
		c-2.3,0-4.1-1.9-4.1-4.1c0-2.3,1.9-4.1,4.1-4.1c2.3,0,4.1,1.9,4.1,4.1C357.2,251.1,355.3,252.9,353,252.9z"/>
</g>
</svg>
