<?xml version="1.0" encoding="utf-8"?>
<!-- Generator: Adobe Illustrator 21.1.0, SVG Export Plug-In . SVG Version: 6.00 Build 0)  -->
<svg version="1.1" id="Capa_1" xmlns="http://www.w3.org/2000/svg" xmlns:xlink="http://www.w3.org/1999/xlink" x="0px" y="0px"
	 viewBox="0 0 500 500" style="enable-background:new 0 0 500 500;" xml:space="preserve">
<style type="text/css">
	.st0{fill:#020202;}
	.st1{fill:#222222;}
	.st2{fill:#FFFFFF;}
	.st3{fill:none;stroke:#FFFFFF;stroke-width:4;stroke-linecap:round;stroke-linejoin:round;stroke-miterlimit:10;}
</style>
<g>
	<g>
		<g>
			<path d="M398.6,386H99.3c-14.1,0-25.6-11.5-25.6-25.6V141.2c0-14.1,11.5-25.6,25.6-25.6h299.3c14.1,0,25.6,11.5,25.6,25.6v219.3
				C424.2,374.5,412.7,386,398.6,386z M99.3,119.6c-11.9,0-21.6,9.7-21.6,21.6v219.3c0,11.9,9.7,21.6,21.6,21.6h299.3
				c11.9,0,21.6-9.7,21.6-21.6V141.2c0-11.9-9.7-21.6-21.6-21.6H99.3z"/>
		</g>
		<g>
			<path d="M422.2,160.4H75.7c-1.1,0-2-0.9-2-2s0.9-2,2-2h346.5c1.1,0,2,0.9,2,2S423.3,160.4,422.2,160.4z"/>
		</g>
	</g>
	<g>
		<g>
			<path d="M409.6,381.4c-3.6,8.3-11.9,14.1-21.6,14.1H88.7c-13,0-23.6-10.5-23.6-23.6V169.9v-17.2c0-9.2,5.3-17.2,13-21.1
				c-1.3,2.9-2,6.1-2,9.5v17.2v202.1c0,13,10.5,23.6,23.6,23.6h299.3C402.8,383.9,406.4,383,409.6,381.4z"/>
		</g>
	</g>
	<path d="M398.6,117.6H99.3c-13,0-23.6,10.5-23.6,23.6v17.2h346.5v-17.2C422.2,128.2,411.7,117.6,398.6,117.6z M99.5,144.8
		c-3.6,0-6.6-2.9-6.6-6.6c0-3.6,2.9-6.6,6.6-6.6c3.6,0,6.6,2.9,6.6,6.6C106.1,141.8,103.1,144.8,99.5,144.8z M128.8,144.8
		c-3.6,0-6.6-2.9-6.6-6.6c0-3.6,2.9-6.6,6.6-6.6c3.6,0,6.6,2.9,6.6,6.6C135.4,141.8,132.4,144.8,128.8,144.8z M158.1,144.8
		c-3.6,0-6.6-2.9-6.6-6.6c0-3.6,2.9-6.6,6.6-6.6c3.6,0,6.6,2.9,6.6,6.6C164.7,141.8,161.7,144.8,158.1,144.8z M400.9,146.9h-23
		c-1.2,0-2.1-0.9-2.1-2.1s0.9-2.1,2.1-2.1h23c1.2,0,2.1,0.9,2.1,2.1S402.1,146.9,400.9,146.9z"/>
	<g>
		<path d="M377.5,241H120.4c-13.3,0-24.2-10.8-24.2-24.2v-15.7c0-13.3,10.8-24.2,24.2-24.2h257.1c13.3,0,24.2,10.8,24.2,24.2v15.7
			C401.7,230.2,390.8,241,377.5,241z M120.4,181.1c-11.1,0-20.2,9-20.2,20.2v15.7c0,11.1,9,20.2,20.2,20.2h257.1
			c11.1,0,20.2-9,20.2-20.2v-15.7c0-11.1-9-20.2-20.2-20.2H120.4z"/>
	</g>
	<g>
		<path d="M249,276.5H99.5c-1.1,0-2-0.9-2-2s0.9-2,2-2H249c1.1,0,2,0.9,2,2S250.1,276.5,249,276.5z"/>
	</g>
	<g>
		<path d="M249,310.2H99.5c-1.1,0-2-0.9-2-2s0.9-2,2-2H249c1.1,0,2,0.9,2,2S250.1,310.2,249,310.2z"/>
	</g>
	<g>
		<path d="M191.6,347H99.5c-1.1,0-2-0.9-2-2s0.9-2,2-2h92.1c1.1,0,2,0.9,2,2S192.7,347,191.6,347z"/>
	</g>
	<g>
		<path d="M409.5,409.2c2.6,2.6,6.8,2.6,9.4,0l11.6-11.6c2.6-2.6,2.6-6.8,0-9.4l-6.6-6.6c3.9-6.2,6.7-12.9,8.3-20h9.3
			c3.7,0,6.6-3,6.6-6.6v-16.4c0-3.7-3-6.6-6.6-6.6h-9.3c-1.6-7.1-4.4-13.8-8.3-20l6.6-6.6c1.3-1.3,1.9-2.9,1.9-4.7s-0.7-3.4-1.9-4.7
			l-11.6-11.6c-2.6-2.6-6.8-2.6-9.4,0l-6.6,6.6c-6.2-3.9-12.9-6.7-20-8.3v-9.3c0-3.7-3-6.6-6.6-6.6h-16.4c-3.7,0-6.6,3-6.6,6.6v9.3
			c-7.1,1.6-13.8,4.4-20,8.3l-6.6-6.6c-2.6-2.6-6.8-2.6-9.4,0l-11.6,11.6c-1.3,1.3-1.9,2.9-1.9,4.7c0,1.8,0.7,3.4,1.9,4.7l6.6,6.6
			c-3.9,6.2-6.7,12.9-8.3,20h-9.3c-3.7,0-6.6,3-6.6,6.6v16.4c0,3.7,3,6.6,6.6,6.6h9.3c1.6,7.1,4.4,13.8,8.3,20l-6.6,6.6
			c-2.6,2.6-2.6,6.8,0,9.4l11.6,11.6c2.6,2.6,6.8,2.6,9.4,0l6.6-6.6c6.2,3.9,12.9,6.7,20,8.3v9.3c0,3.7,3,6.6,6.6,6.6h16.4
			c3.7,0,6.6-3,6.6-6.6v-9.3c7.1-1.6,13.8-4.4,20-8.3L409.5,409.2z M380.3,407.2 M402.9,346.7c0,19.3-15.7,35-35,35s-35-15.7-35-35
			c0-19.3,15.7-35,35-35S402.9,327.4,402.9,346.7z"/>
	</g>
	<g>
		<path d="M371.1,455.5c-32,0-61.8-14.3-81.7-39.3c-0.7-0.9-0.5-2.1,0.3-2.8c0.9-0.7,2.1-0.5,2.8,0.3c19.2,24,47.9,37.8,78.6,37.8
			c55.5,0,100.6-45.1,100.6-100.6c0-21.5-6.7-41.9-19.3-59.2c-0.7-0.9-0.5-2.1,0.4-2.8c0.9-0.7,2.1-0.5,2.8,0.4
			c13.1,18,20.1,39.3,20.1,61.6C475.7,408.6,428.8,455.5,371.1,455.5z"/>
	</g>
	<g>
		<polygon points="461,281.3 442.5,296.7 436.4,270.5 		"/>
		<path d="M442.5,298.7c-0.2,0-0.4,0-0.6-0.1c-0.7-0.2-1.2-0.8-1.3-1.4l-6.1-26.2c-0.2-0.7,0.1-1.5,0.7-2c0.6-0.5,1.4-0.6,2.1-0.3
			l24.6,10.8c0.6,0.3,1.1,0.9,1.2,1.6c0.1,0.7-0.2,1.4-0.7,1.8l-18.5,15.3C443.4,298.5,442.9,298.7,442.5,298.7z M439.3,273.9
			l4.4,19.1l13.5-11.2L439.3,273.9z"/>
	</g>
</g>
</svg>
