<?xml version="1.0" encoding="utf-8"?>
<!-- Generator: Adobe Illustrator 21.1.0, SVG Export Plug-In . SVG Version: 6.00 Build 0)  -->
<svg version="1.1" id="Capa_1" xmlns="http://www.w3.org/2000/svg" xmlns:xlink="http://www.w3.org/1999/xlink" x="0px" y="0px"
	 viewBox="0 0 500 500" style="enable-background:new 0 0 500 500;" xml:space="preserve">
<style type="text/css">
	.st0{fill:#020202;}
	.st1{fill:#222222;}
	.st2{fill:#FFFFFF;}
	.st3{fill:none;stroke:#FFFFFF;stroke-width:4;stroke-linecap:round;stroke-linejoin:round;stroke-miterlimit:10;}
</style>
<g>
	<g>
		<g>
			<g>
				<path class="st0" d="M75.4,332.7c-7.7,0-15.5-2.9-21.4-8.8l-2.5-2.5c-11.8-11.8-11.8-31,0-42.7l175.9-175.9
					c0.9-0.9,2.4-0.9,3.3,0l42,42c0.9,0.9,0.9,2.4,0,3.3L96.7,323.8C90.9,329.7,83.1,332.7,75.4,332.7z M229.1,107.6L54.8,281.9
					c-10,10-10,26.2,0,36.1l2.5,2.5c10,10,26.2,10,36.1,0l174.3-174.3L229.1,107.6z"/>
			</g>
			<g>
				<path class="st0" d="M109.3,310.3c-0.6,0-1.2-0.2-1.7-0.7l-42-42c-0.9-0.9-0.9-2.4,0-3.3c0.9-0.9,2.4-0.9,3.3,0l42,42
					c0.9,0.9,0.9,2.4,0,3.3C110.5,310.1,109.9,310.3,109.3,310.3z"/>
			</g>
			<g>
				<path class="st0" d="M271,148.6c-0.3,0-0.7-0.1-1-0.2c-1.2-0.5-1.7-1.9-1.1-3.1l31.7-68c0.5-1.1-0.2-1.9-0.4-2.1
					c-0.2-0.2-1-0.9-2.1-0.4l-68,31.7c-1.2,0.5-2.6,0-3.1-1.1c-0.5-1.2,0-2.6,1.1-3.1l68-31.7c2.5-1.2,5.4-0.7,7.4,1.3
					c2,2,2.5,4.9,1.3,7.4l-31.7,68C272.7,148.1,271.9,148.6,271,148.6z"/>
			</g>
			<g>
				<path class="st0" d="M288.5,111.3c-0.6,0-1.2-0.2-1.7-0.7l-22.1-22.1c-0.9-0.9-0.9-2.4,0-3.3c0.9-0.9,2.4-0.9,3.3,0l22.1,22.1
					c0.9,0.9,0.9,2.4,0,3.3C289.7,111.1,289.1,111.3,288.5,111.3z"/>
			</g>
		</g>
		<g>
			<g>
				<path class="st0" d="M109.3,308l-14.2,14.2c-10.9,10.9-28.6,10.9-39.4,0l-2.5-2.5c-10.9-10.9-10.9-28.6,0-39.4L67.3,266
					L109.3,308z"/>
			</g>
			<g>
				<path class="st0" d="M297.1,72.6c3.6-1.7,7.3,2,5.6,5.6l-14.3,30.7l-22-22v0L297.1,72.6z"/>
			</g>
		</g>
		<g>
			<path class="st0" d="M88.5,289.5c-0.6,0-1.2-0.2-1.7-0.7c-0.9-0.9-0.9-2.4,0-3.3l161.7-161.7c0.9-0.9,2.4-0.9,3.3,0
				c0.9,0.9,0.9,2.4,0,3.3L90.2,288.8C89.7,289.3,89.1,289.5,88.5,289.5z"/>
		</g>
		<g>
			<path class="st0" d="M349.7,344.9H183.1c-1.3,0-2.3-1-2.3-2.3V235.2c0-1.3,1-2.3,2.3-2.3c1.3,0,2.3,1,2.3,2.3v105h161.9V191.8
				H228.9c-1.3,0-2.3-1-2.3-2.3c0-1.3,1-2.3,2.3-2.3h120.8c1.3,0,2.3,1,2.3,2.3v153.1C352,343.8,351,344.9,349.7,344.9z"/>
		</g>
		<g>
			<path class="st0" d="M348.6,430.1c-48.3,0-87.6-39.3-87.6-87.6s39.3-87.6,87.6-87.6s87.6,39.3,87.6,87.6S396.9,430.1,348.6,430.1
				z M348.6,259.6c-45.7,0-82.9,37.2-82.9,82.9s37.2,82.9,82.9,82.9s82.9-37.2,82.9-82.9S394.3,259.6,348.6,259.6z"/>
		</g>
		<g>
			<path class="st0" d="M237.1,375.1h-28.6c-1.3,0-2.3-1-2.3-2.3s1-2.3,2.3-2.3h28.6c1.3,0,2.3,1,2.3,2.3S238.4,375.1,237.1,375.1z"
				/>
		</g>
		<g>
			<path class="st0" d="M226.5,402.2H176c-1.3,0-2.3-1-2.3-2.3c0-1.3,1-2.3,2.3-2.3h50.5c1.3,0,2.3,1,2.3,2.3
				C228.8,401.2,227.8,402.2,226.5,402.2z"/>
		</g>
	</g>
	<g>
		<path class="st0" d="M349.7,257.3v85.2h-86.3c0-47.1,38.2-85.2,85.2-85.2C349,257.3,349.3,257.3,349.7,257.3z"/>
	</g>
	<g>
		<path class="st0" d="M100.4,135.4c-1.3,0-2.3-1-2.3-2.3v-32.7c0-1.3,1-2.3,2.3-2.3c1.3,0,2.3,1,2.3,2.3V133
			C102.7,134.3,101.7,135.4,100.4,135.4z"/>
	</g>
	<g>
		<path class="st0" d="M116,119H84.8c-1.3,0-2.3-1-2.3-2.3s1-2.3,2.3-2.3H116c1.3,0,2.3,1,2.3,2.3S117.3,119,116,119z"/>
	</g>
	<g>
		<path class="st0" d="M133.9,154.4c-1.3,0-2.3-1-2.3-2.3V135c0-1.3,1-2.3,2.3-2.3c1.3,0,2.3,1,2.3,2.3v17.1
			C136.2,153.4,135.2,154.4,133.9,154.4z"/>
	</g>
	<g>
		<path class="st0" d="M142,145.9h-16.3c-1.3,0-2.3-1-2.3-2.3c0-1.3,1-2.3,2.3-2.3H142c1.3,0,2.3,1,2.3,2.3
			C144.4,144.8,143.3,145.9,142,145.9z"/>
	</g>
</g>
</svg>
