<?xml version="1.0" encoding="utf-8"?>
<!-- Generator: Adobe Illustrator 21.1.0, SVG Export Plug-In . SVG Version: 6.00 Build 0)  -->
<svg version="1.1" id="Capa_1" xmlns="http://www.w3.org/2000/svg" xmlns:xlink="http://www.w3.org/1999/xlink" x="0px" y="0px"
	 viewBox="0 0 500 500" style="enable-background:new 0 0 500 500;" xml:space="preserve">
<style type="text/css">
	.st0{fill:#020202;}
	.st1{fill:#222222;}
	.st2{fill:#FFFFFF;}
	.st3{fill:none;stroke:#FFFFFF;stroke-width:4;stroke-linecap:round;stroke-linejoin:round;stroke-miterlimit:10;}
</style>
<g>
	<path d="M142.4,247c-4.4-1.5-8.2-2.6-8.2-4.8v-0.2c0-1.6,1.4-2.8,4.2-2.8c2.4,0,5.5,1,8.7,2.6c0.8,0.4,1.3,0.5,2.1,0.5
		c2.6,0,4.6-2,4.6-4.5c0-2-1.1-3.5-2.7-4.3c-3.9-2-8.3-3.1-12.5-3.1c-8.1,0-14.7,4.6-14.7,12.8v0.2c0,7.8,6.4,10.4,12,12.1
		c4.4,1.4,8.3,2.2,8.3,4.7v0.2c0,1.8-1.5,3-4.8,3c-3.2,0-7.1-1.2-10.9-3.6c-0.6-0.4-1.4-0.6-2.3-0.6c-2.6,0-4.5,2-4.5,4.5
		c0,1.8,1,3.2,2.2,3.9c4.9,3.2,10.2,4.6,15.2,4.6c8.7,0,15.4-4.1,15.4-13V259C154.5,251.6,148,248.9,142.4,247z"/>
	<path d="M167.4,216.2c-3.6,0-6.4,2-6.4,5.3v0.2c0,3.3,2.8,5.4,6.4,5.4c3.6,0,6.4-2.1,6.4-5.4v-0.2
		C173.8,218.2,171,216.2,167.4,216.2z"/>
	<path d="M167.4,230.7c-3.2,0-5.7,2.6-5.7,5.7v29.7c0,3.2,2.6,5.7,5.7,5.7c3.2,0,5.7-2.6,5.7-5.7v-29.7
		C173.1,233.2,170.6,230.7,167.4,230.7z"/>
	<path d="M217.1,230.7c-3.2,0-5.7,2.6-5.7,5.6v0.1c-3.1-3.4-6.8-6-13-6c-9.2,0-17.9,6.8-17.9,18.8v0.2c0,11.9,8.5,18.8,17.9,18.8
		c6.1,0,9.8-2.5,13.1-6.5v2c0,7.2-3.7,11-11.5,11c-4.3,0-7.8-0.9-11.1-2.4c-0.5-0.2-1.1-0.4-1.9-0.4c-2.6,0-4.7,2.1-4.7,4.7
		c0,2.1,1.3,3.7,3.2,4.4c4.7,1.9,9.4,2.8,14.7,2.8c7.8,0,13.6-1.7,17.3-5.4c3.4-3.4,5.1-8.6,5.1-15.8v-25.9
		C222.8,233.2,220.3,230.7,217.1,230.7z M211.6,249.3c0,5.5-4.3,9.3-9.8,9.3c-5.6,0-9.8-3.8-9.8-9.3v-0.2c0-5.5,4.2-9.3,9.8-9.3
		c5.6,0,9.8,3.8,9.8,9.3V249.3z"/>
	<path d="M254.7,230.4c-5.8,0-9.2,3.1-11.8,6.5v-0.5c0-3.2-2.6-5.7-5.7-5.7c-3.2,0-5.7,2.6-5.7,5.7v29.7c0,3.2,2.6,5.7,5.7,5.7
		c3.2,0,5.7-2.6,5.7-5.7v-17.2c0-5.4,2.8-8.2,7.1-8.2c4.4,0,6.9,2.8,6.9,8.2v17.2c0,3.2,2.6,5.7,5.7,5.7c3.2,0,5.7-2.6,5.7-5.7
		v-20.8C268.4,236.1,263.3,230.4,254.7,230.4z"/>
	<path d="M315.8,265.6v0.5c0,3.2,2.6,5.7,5.7,5.7c3.2,0,5.7-2.6,5.7-5.7v-29.7c0-3.2-2.6-5.7-5.7-5.7c-3.2,0-5.7,2.6-5.7,5.7v17.2
		c0,5.4-2.8,8.2-7.1,8.2c-4.4,0-6.9-2.8-6.9-8.2v-17.2c0-3.2-2.6-5.7-5.7-5.7c-3.2,0-5.7,2.6-5.7,5.7v20.8c0,9.2,5,14.9,13.7,14.9
		C309.8,272.1,313.2,269,315.8,265.6z"/>
	<path d="M341.6,283.8c3.2,0,5.7-2.6,5.7-5.7v-12c2.7,3.2,6.5,6,12.5,6c9.5,0,18.3-7.4,18.3-20.8v-0.2c0-13.4-8.9-20.8-18.3-20.8
		c-5.9,0-9.8,2.8-12.5,6.5v-0.5c0-3.2-2.6-5.7-5.7-5.7c-3.2,0-5.7,2.6-5.7,5.7v41.7C335.9,281.3,338.5,283.8,341.6,283.8z
		 M347.2,251.2c0-6.7,4.4-11.1,9.8-11.1s9.8,4.4,9.8,11.1v0.2c0,6.8-4.5,11.1-9.8,11.1s-9.8-4.4-9.8-11.1V251.2z"/>
	<path d="M459.8,375.8c0.4-8.3-0.7-16.7-3.3-24.4l-8.6-25.5c-2.5-7.3-10.4-11.2-17.7-8.8c-3.4,1.2-6.1,3.5-7.7,6.5l-0.4-1.3
		c-2.5-7.3-10.4-11.2-17.7-8.8c-4.1,1.4-7.1,4.5-8.6,8.2c-3.6-3.8-9.2-5.3-14.5-3.6c-3.4,1.2-6.1,3.5-7.7,6.5l-4.8-14.3h35.5
		c3.2,0,6.3-0.6,9.3-1.9c8.8-3.7,14.5-12.3,14.5-21.9v-73.1c0-9.9-6.1-18.4-14.7-22c-2.2-6.8-7.3-12.1-13.6-14.7
		c-3-10-12.3-16.9-22.8-16.9H68.5c-13.1,0-23.8,10.7-23.8,23.8v73.1c0,9.7,5.8,18.3,14.7,22c0,0,0,0,0.1,0c2,6.7,6.9,12.3,13.6,15
		c3.1,9.5,12.1,16.5,22.6,16.5h200.5h43l14.2,42c-0.4-0.3-0.7-0.7-1.1-1c-3.1-2.8-7.1-4.3-11.2-4.1c-4.6,0.2-8.8,2.4-11.7,6.1
		c-2,2.6-3.1,5.7-3.2,8.9c-0.2,4.7,1.7,9,5.1,12.1c3.9,3.6,7.9,13.5,9.1,17c0.3,1,8.1,23.8,28.7,34.1c12,6,25.7,6.4,40.9,1.3
		l20.1-6.8c16-5.4,26-26.4,29.8-42.9C460,376.7,459.9,376.2,459.8,375.8z M48.7,256.8v-73.1c0-10.9,8.9-19.8,19.8-19.8h308.4
		c7.8,0,14.8,4.6,18,11.5c-1.4-0.2-2.8-0.4-4.2-0.4H82.3c-13.1,0-23.8,10.7-23.8,23.8v73.1c0,0.7,0,1.4,0.1,2
		C52.5,270.4,48.7,264,48.7,256.8z M76,286.6v-73.1c0-10.9,8.9-19.8,19.8-19.8h308.4c10.9,0,19.8,8.9,19.8,19.8v73.1
		c0,8-4.7,15.1-12.1,18.2c-2.4,1-5,1.6-7.7,1.6h-36.8l-3.7-11.1c-2.5-7.3-10.4-11.2-17.7-8.8c-3.5,1.2-6.4,3.7-8,7
		c-1.7,3.3-1.9,7.1-0.7,10.6l0.7,2.2h-41.6H95.8C84.9,306.4,76,297.5,76,286.6z M428.6,415.7l-20.1,6.8c-14,4.7-26.5,4.4-37.4-1
		c-18.9-9.4-26.4-31.2-26.5-31.5c-0.2-0.6-4.7-13.8-10.3-18.9c-2.5-2.3-3.8-5.6-3.6-9c0.1-2,0.8-3.9,2-5.5c2-2.8,5.1-4.5,8.5-4.7
		c2.9-0.1,5.8,0.9,7.9,2.9c0.1,0.1,0.1,0.1,0.2,0.2c4.6,4.2,8.1,9.6,10.1,15.5l4.4,13c0.4,1.2,1.7,1.9,2.8,1.5
		c1.2-0.4,1.9-1.7,1.5-2.9l-24-71.3c0,0,0,0,0,0l-2.7-8c-0.8-2.4-0.6-4.9,0.5-7.2c1.1-2.2,3-3.9,5.4-4.7c4.9-1.7,10.2,1,11.9,5.9
		l19.5,57.8c0.4,1.2,1.7,1.8,2.9,1.4c1.2-0.4,1.8-1.7,1.4-2.9l-6.3-18.6c-1.7-4.9,1-10.2,5.9-11.9c4.9-1.7,10.2,1,11.9,5.9l5.1,15
		c0.4,1.2,1.7,1.8,2.9,1.4c1.2-0.4,1.8-1.7,1.4-2.9l-4.1-12.2c-1.7-4.9,1-10.2,5.9-11.9c4.9-1.7,10.2,1,11.9,5.9l5.7,16.8
		c0.4,1.2,1.7,1.8,2.9,1.4c1.2-0.4,1.8-1.7,1.4-2.9l-1.9-5.8c-1.7-4.9,1-10.2,5.9-11.9c4.9-1.7,10.2,1,11.9,5.9l8.6,25.5
		c2.5,7.4,3.5,15.5,3.1,23.5c0,0.2,0,0.3,0,0.5C451.7,391.7,442.1,411.2,428.6,415.7z"/>
	<path d="M385.5,387.6c-0.4-1-1.5-1.6-2.5-1.3s-1.6,1.5-1.3,2.5l5.5,16.4c0.3,0.8,1.1,1.4,1.9,1.4c0.2,0,0.4,0,0.6-0.1
		c1-0.4,1.6-1.5,1.3-2.5L385.5,387.6z"/>
	<path d="M429.4,372.8c-0.4-1-1.5-1.6-2.5-1.3s-1.6,1.5-1.3,2.5l5.5,16.4c0.3,0.8,1.1,1.4,1.9,1.4c0.2,0,0.4,0,0.6-0.1
		c1-0.4,1.6-1.5,1.3-2.5L429.4,372.8z"/>
	<path d="M404.2,372.5c-0.4-1-1.5-1.6-2.5-1.3c-1,0.4-1.6,1.5-1.3,2.5l10.1,30c0.3,0.8,1.1,1.4,1.9,1.4c0.2,0,0.4,0,0.6-0.1
		c1-0.4,1.6-1.5,1.3-2.5L404.2,372.5z"/>
	<path d="M387.1,209.8h11.1c5.3,0,9.5,5.1,9.5,11.3v12.4c0,1.1,0.9,2,2,2s2-0.9,2-2v-12.4c0-8.5-6.1-15.3-13.5-15.3h-11.1
		c-1.1,0-2,0.9-2,2S386,209.8,387.1,209.8z"/>
	<path d="M362.7,209.8h8.4c1.1,0,2-0.9,2-2s-0.9-2-2-2h-8.4c-1.1,0-2,0.9-2,2S361.6,209.8,362.7,209.8z"/>
</g>
</svg>
