<?xml version="1.0" encoding="utf-8"?>
<!-- Generator: Adobe Illustrator 21.1.0, SVG Export Plug-In . SVG Version: 6.00 Build 0)  -->
<svg version="1.1" xmlns="http://www.w3.org/2000/svg" xmlns:xlink="http://www.w3.org/1999/xlink" x="0px" y="0px"
	 viewBox="0 0 1000 750" style="enable-background:new 0 0 1000 750;" xml:space="preserve">
<style type="text/css">
	.st0{fill:none;stroke:#000000;stroke-width:8;stroke-linecap:round;stroke-linejoin:round;stroke-miterlimit:10;}
</style>
<g id="Capa_3">
</g>
<g id="Capa_2">
	<g>
		<g>
			<path class="st0" d="M317.6,318.5c-16.3-20.7-114.5-42.2-188.5,73.1"/>
			<path class="st0" d="M354,334.2c-27.6-23.8-65.2-20.1-104.1-3.1"/>
			<path class="st0" d="M278.1,351.9c56.4,0,124.8-39.2,144.4-45.1c44.7-13.6,32.4,77.7-4.2,77.7"/>
			<path class="st0" d="M302,384.3c35.6,1.9,85.3-53.6,93.7-53.6c10.5,0,28.9,5.6,28.9,32.4c0,58.8-129.1,79.5-129.1,118"/>
			<path class="st0" d="M287.2,469c0,10.7,40.8,33.5,40.8,62.4c0,22.6-18.5,56.4-47,56.4s-28.8-22.3-28.8-29.2
				c0-11.8,16.3-32-6.3-38.6"/>
			<path class="st0" d="M201.7,519c19.5,14.1,38.8,16,55.5,11.1"/>
			<path class="st0" d="M119.7,432.8c-21.6,8.9-39,23.8-63,43.7"/>
			<path class="st0" d="M163.9,506.1c-16.2,8.2-33.6,17.2-71.9,36.2"/>
			<path class="st0" d="M163.9,506.1c3.3-27.3-19.8-73.4-44.2-73.4"/>
			<path class="st0" d="M129.3,523.3c10.6,19,60.8,32.9,72.4-4.2c20.5-65.4-43.6-151.7-94-121.1c-17.8,10.8-21.3,34.1-16.2,50.8"/>
		</g>
		<g>
			<path class="st0" d="M700.7,397.9C690,377.1,580.9,293.1,578.1,257.5c-2.1-26.1,21.5-33.4,36.1-30.8c37.8,6.5,73.8,74.7,91,78.8"
				/>
			<path class="st0" d="M675.8,276.7c19.8-27.2,66.6-15.4,93.9,14.8"/>
			<path class="st0" d="M718.8,262.3c15.1-16.2,43.2-23,86.5,14.1"/>
			<path class="st0" d="M769.7,253.7c33.2-27.1,113.8,10.9,115.3,105.5"/>
			<path class="st0" d="M658.5,354.2c-59.9,85.7,49.9,124.7,132.2,108.6"/>
			<path class="st0" d="M788.3,453c0-48.9,40.9-91.9,96.7-91.9c27.9,0,54.2,26.7,31.7,67.3"/>
			<path class="st0" d="M788.3,453c0,19.2,28.2,40,59.5,34"/>
			<path class="st0" d="M943.3,464.2c-3.9-3.3-45.3-58.4-50.4-64c-16.3-18.1-83.1,25.2-70.5,48.3c5.3,9.8,47.8,59.9,47.8,59.9"/>
		</g>
		<polyline class="st0" points="663.1,261.7 672.2,262.1 672.2,169 399.6,168.6 399.6,261.7 578.8,261.7 		"/>
		<polyline class="st0" points="578.6,581.7 652,581.7 652,519.9 399.6,519.9 399.6,581.7 584.4,581.7 		"/>
		<rect x="254.7" y="168.6" class="st0" width="104.1" height="93.1"/>
		<polyline class="st0" points="399.6,316.3 399.6,288.8 565.1,288.8 565.1,492.8 399.6,492.8 399.6,405.1 		"/>
		<rect x="686.1" y="519" class="st0" width="69.3" height="62.7"/>
		<line class="st0" x1="705.1" y1="173.3" x2="738.9" y2="173.3"/>
		<line class="st0" x1="705.1" y1="202.5" x2="719.1" y2="202.5"/>
		<line class="st0" x1="378.2" y1="484.1" x2="348.4" y2="484.1"/>
		<line class="st0" x1="378.2" y1="457.3" x2="367.2" y2="457.3"/>
	</g>
</g>
</svg>
