<?xml version="1.0" encoding="utf-8"?>
<!-- Generator: Adobe Illustrator 21.1.0, SVG Export Plug-In . SVG Version: 6.00 Build 0)  -->
<svg version="1.1" id="Capa_2" xmlns="http://www.w3.org/2000/svg" xmlns:xlink="http://www.w3.org/1999/xlink" x="0px" y="0px"
	 viewBox="0 0 529.3 326.5" style="enable-background:new 0 0 529.3 326.5;" xml:space="preserve">
<style type="text/css">
	.st0{fill:url(#SVGID_1_);}
	.st1{opacity:0.74;fill:url(#SVGID_2_);enable-background:new    ;}
	.st2{fill:url(#SVGID_3_);}
	.st3{fill:url(#SVGID_4_);}
	.st4{fill:url(#SVGID_5_);}
	.st5{fill:url(#SVGID_6_);}
	.st6{fill:url(#SVGID_7_);}
	.st7{fill:url(#SVGID_8_);}
	.st8{fill:url(#SVGID_9_);}
	.st9{fill:url(#SVGID_10_);}
	.st10{fill:url(#SVGID_11_);}
	.st11{fill:url(#SVGID_12_);}
</style>
<g>
	
		<linearGradient id="SVGID_1_" gradientUnits="userSpaceOnUse" x1="44.9996" y1="44.626" x2="695.967" y2="491.6036" gradientTransform="matrix(1 0 0 -1 0 328)">
		<stop  offset="0" style="stop-color:#FFFFFF"/>
		<stop  offset="0.1087" style="stop-color:#F1F7FE"/>
		<stop  offset="0.3157" style="stop-color:#CBE1FD"/>
		<stop  offset="0.5998" style="stop-color:#8DBEFB"/>
		<stop  offset="0.9466" style="stop-color:#3A8FF8"/>
		<stop  offset="1" style="stop-color:#2C87F7"/>
	</linearGradient>
	<path class="st0" d="M361.9,18.4h164.8c1.2,0,2.2-1,2.2-2.2v-14c0-1.2-1-2.2-2.2-2.2H361.9c-1.2,0-2.2,1-2.2,2.2v14.1
		C359.7,17.5,360.7,18.4,361.9,18.4z"/>
	
		<linearGradient id="SVGID_2_" gradientUnits="userSpaceOnUse" x1="70.3713" y1="-17.492" x2="739.6605" y2="442.066" gradientTransform="matrix(1 0 0 -1 0 328)">
		<stop  offset="0" style="stop-color:#FFFFFF"/>
		<stop  offset="0.1481" style="stop-color:#FFFDF1"/>
		<stop  offset="0.4301" style="stop-color:#FEF7CB"/>
		<stop  offset="0.8134" style="stop-color:#FDEF8E"/>
		<stop  offset="1" style="stop-color:#FDEA6E"/>
	</linearGradient>
	<path class="st1" d="M526.8,93.2h-31.7c1.2,0,2.2-1,2.2-2.2V48.6c0-1.2-1-2.2-2.2-2.2H350.8c-1.2,0-2.2,1-2.2,2.2V91
		c0,1.2,1,2.2,2.2,2.2h58.3c-1.2,0-2.2,1-2.2,2.2v41.1c0,1.2,1,2.2,2.2,2.2h117.6c1.2,0,2.2-1,2.2-2.2V95.3
		C528.9,94.1,528,93.2,526.8,93.2z"/>
	
		<linearGradient id="SVGID_3_" gradientUnits="userSpaceOnUse" x1="-482.5766" y1="-517.2552" x2="1209.7914" y2="644.7855" gradientTransform="matrix(1 0 0 -1 0 328)">
		<stop  offset="0" style="stop-color:#FFFFFF"/>
		<stop  offset="0.1258" style="stop-color:#FFF9F9"/>
		<stop  offset="0.2995" style="stop-color:#FEE7E7"/>
		<stop  offset="0.5012" style="stop-color:#FDCBCA"/>
		<stop  offset="0.7239" style="stop-color:#FCA3A1"/>
		<stop  offset="0.9613" style="stop-color:#FA706D"/>
		<stop  offset="1" style="stop-color:#FA6764"/>
	</linearGradient>
	<path class="st2" d="M526.2,155.1h-49.8c-1.7,0-3,1.4-3,3v40.8c0,0.6,0.2,1.1,0.5,1.6c-0.1,0-0.2,0-0.3,0H371.2c-1.7,0-3,1.4-3,3
		v40.8c0,1.7,1.4,3,3,3h102.3c1.7,0,3-1.4,3-3v-40.8c0-0.6-0.2-1.1-0.5-1.6c0.1,0,0.2,0,0.3,0h49.8c1.7,0,3-1.4,3-3v-40.8
		C529.3,156.4,527.9,155.1,526.2,155.1z"/>
	<linearGradient id="SVGID_4_" gradientUnits="userSpaceOnUse" x1="-41.7717" y1="-0.6126" x2="979.4887" y2="700.6214">
		<stop  offset="0" style="stop-color:#FFFFFF"/>
		<stop  offset="0.1087" style="stop-color:#F1F7FE"/>
		<stop  offset="0.3157" style="stop-color:#CBE1FD"/>
		<stop  offset="0.5998" style="stop-color:#8DBEFB"/>
		<stop  offset="0.9466" style="stop-color:#3A8FF8"/>
		<stop  offset="1" style="stop-color:#2C87F7"/>
	</linearGradient>
	<path class="st3" d="M274,144.3H170.4c-0.9,0-1.6,0.7-1.6,1.6v22.6c0,0.9,0.7,1.6,1.6,1.6h-30.7c-0.9,0-1.6,0.7-1.6,1.6v22.6
		c0,0.9,0.7,1.6,1.6,1.6H207c0.9,0,1.6-0.7,1.6-1.6v-22.6c0-0.9-0.7-1.6-1.6-1.6h67c0.9,0,1.7-0.7,1.6-1.6v-22.6
		C275.6,145,274.9,144.3,274,144.3z"/>
	
		<linearGradient id="SVGID_5_" gradientUnits="userSpaceOnUse" x1="84.6093" y1="-13.0606" x2="735.5767" y2="433.917" gradientTransform="matrix(1 0 0 -1 0 328)">
		<stop  offset="0" style="stop-color:#FFFFFF"/>
		<stop  offset="0.1481" style="stop-color:#FFFDF1"/>
		<stop  offset="0.4301" style="stop-color:#FEF7CB"/>
		<stop  offset="0.8134" style="stop-color:#FDEF8E"/>
		<stop  offset="1" style="stop-color:#FDEA6E"/>
	</linearGradient>
	<path class="st4" d="M366.2,180.3h-35.1c-1.7,0-3-1.4-3-3v-35.1c0-1.7,1.4-3,3-3h35.1c1.7,0,3,1.4,3,3v35.1
		C369.3,178.9,367.9,180.3,366.2,180.3z"/>
	
		<linearGradient id="SVGID_6_" gradientUnits="userSpaceOnUse" x1="-24.2638" y1="145.4995" x2="626.7036" y2="592.4772" gradientTransform="matrix(1 0 0 -1 0 328)">
		<stop  offset="0" style="stop-color:#FFFFFF"/>
		<stop  offset="0.1402" style="stop-color:#FFF1F1"/>
		<stop  offset="0.4071" style="stop-color:#FDCCCB"/>
		<stop  offset="0.7699" style="stop-color:#FB908E"/>
		<stop  offset="1" style="stop-color:#FA6764"/>
	</linearGradient>
	<path class="st5" d="M181,60.7h-20.8c-0.9,0-1.6-0.7-1.6-1.6V38.3c0-0.9,0.7-1.6,1.6-1.6H181c0.9,0,1.6,0.7,1.6,1.6v20.8
		C182.6,60,181.9,60.7,181,60.7z"/>
	
		<linearGradient id="SVGID_7_" gradientUnits="userSpaceOnUse" x1="193.6229" y1="-171.8253" x2="844.5903" y2="275.1523" gradientTransform="matrix(1 0 0 -1 0 328)">
		<stop  offset="0" style="stop-color:#FFFFFF"/>
		<stop  offset="0.1402" style="stop-color:#FFF1F1"/>
		<stop  offset="0.4071" style="stop-color:#FDCCCB"/>
		<stop  offset="0.7699" style="stop-color:#FB908E"/>
		<stop  offset="1" style="stop-color:#FA6764"/>
	</linearGradient>
	<path class="st6" d="M496.5,311h-20.8c-0.9,0-1.6-0.7-1.6-1.6v-20.8c0-0.9,0.7-1.6,1.6-1.6h20.8c0.9,0,1.6,0.7,1.6,1.6v20.8
		C498.1,310.3,497.4,311,496.5,311z"/>
	
		<linearGradient id="SVGID_8_" gradientUnits="userSpaceOnUse" x1="146.878" y1="-103.7472" x2="797.8455" y2="343.2303" gradientTransform="matrix(1 0 0 -1 0 328)">
		<stop  offset="0" style="stop-color:#FFFFFF"/>
		<stop  offset="0.1402" style="stop-color:#FFF1F1"/>
		<stop  offset="0.4071" style="stop-color:#FDCCCB"/>
		<stop  offset="0.7699" style="stop-color:#FB908E"/>
		<stop  offset="1" style="stop-color:#FA6764"/>
	</linearGradient>
	<path class="st7" d="M319.3,326.5h-13.7c-0.9,0-1.6-0.7-1.6-1.6v-13.7c0-0.9,0.7-1.6,1.6-1.6h13.7c0.9,0,1.6,0.7,1.6,1.6v13.7
		C321,325.8,320.2,326.5,319.3,326.5z"/>
	
		<linearGradient id="SVGID_9_" gradientUnits="userSpaceOnUse" x1="-18.2909" y1="110.9191" x2="632.6766" y2="557.8969" gradientTransform="matrix(1 0 0 -1 0 328)">
		<stop  offset="0" style="stop-color:#FFFFFF"/>
		<stop  offset="0.1402" style="stop-color:#FFF1F1"/>
		<stop  offset="0.4071" style="stop-color:#FDCCCB"/>
		<stop  offset="0.7699" style="stop-color:#FB908E"/>
		<stop  offset="1" style="stop-color:#FA6764"/>
	</linearGradient>
	<path class="st8" d="M74.2,170.1H56.5c-0.9,0-1.6-0.7-1.6-1.6v-17.7c0-0.9,0.7-1.6,1.6-1.6h17.7c0.9,0,1.6,0.7,1.6,1.6v17.7
		C75.8,169.4,75.1,170.1,74.2,170.1z"/>
	
		<linearGradient id="SVGID_10_" gradientUnits="userSpaceOnUse" x1="-54.6305" y1="189.7249" x2="596.3369" y2="636.7026" gradientTransform="matrix(1 0 0 -1 0 328)">
		<stop  offset="0" style="stop-color:#FFFFFF"/>
		<stop  offset="0.1402" style="stop-color:#FFF1F1"/>
		<stop  offset="0.4071" style="stop-color:#FDCCCB"/>
		<stop  offset="0.7699" style="stop-color:#FB908E"/>
		<stop  offset="1" style="stop-color:#FA6764"/>
	</linearGradient>
	<path class="st9" d="M11.4,92v9.7c0,0.5-0.4,0.8-0.8,0.8H0.8c-0.5,0-0.8-0.4-0.8-0.8V92c0-0.5,0.4-0.8,0.8-0.8h9.7
		C11,91.2,11.4,91.6,11.4,92z"/>
	
		<linearGradient id="SVGID_11_" gradientUnits="userSpaceOnUse" x1="92.5883" y1="-24.6811" x2="743.5558" y2="422.2966" gradientTransform="matrix(1 0 0 -1 0 328)">
		<stop  offset="0" style="stop-color:#FFFFFF"/>
		<stop  offset="0.1481" style="stop-color:#FFFDF1"/>
		<stop  offset="0.4301" style="stop-color:#FEF7CB"/>
		<stop  offset="0.8134" style="stop-color:#FDEF8E"/>
		<stop  offset="1" style="stop-color:#FDEA6E"/>
	</linearGradient>
	<path class="st10" d="M299.8,218v17.9c0,0.5-0.4,0.8-0.8,0.8h-46.6c-0.5,0-0.8-0.4-0.8-0.8V218c0-0.5,0.4-0.8,0.8-0.8H299
		C299.4,217.1,299.8,217.5,299.8,218z"/>
	
		<linearGradient id="SVGID_12_" gradientUnits="userSpaceOnUse" x1="21.4006" y1="56.4888" x2="672.368" y2="503.4666" gradientTransform="matrix(1 0 0 -1 0 328)">
		<stop  offset="0" style="stop-color:#FFFFFF"/>
		<stop  offset="0.1481" style="stop-color:#FFFDF1"/>
		<stop  offset="0.4301" style="stop-color:#FEF7CB"/>
		<stop  offset="0.8134" style="stop-color:#FDEF8E"/>
		<stop  offset="1" style="stop-color:#FDEA6E"/>
	</linearGradient>
	<path class="st11" d="M288.7,111.5h-26c-0.9,0-1.6-0.7-1.6-1.6v-26c0-0.9,0.7-1.6,1.6-1.6h26c0.9,0,1.6,0.7,1.6,1.6v26
		C290.3,110.8,289.6,111.5,288.7,111.5z"/>
</g>
</svg>
